<svg xmlns="http://www.w3.org/2000/svg" viewBox="0 0 24 24" fill="none">
  <circle cx="12" cy="12" r="11" fill="#000000" stroke="#ffffff" stroke-width="0.5"/>
  <path d="M12 2.5 L14.5 7.5 L10.5 10.5 L7.5 8 L9.5 3.5 Z" fill="#ffffff"/>
  <path d="M14.5 7.5 L19.5 6.5 L20 11 L16.5 13.5 L10.5 10.5 Z" fill="#ffffff"/>
  <path d="M20 11 L21.5 15.5 L17.5 18.5 L13.5 16.5 L16.5 13.5 Z" fill="#ffffff"/>
  <path d="M17.5 18.5 L14.5 21.5 L10 20.5 L10.5 16 L13.5 16.5 Z" fill="#ffffff"/>
  <path d="M10 20.5 L5.5 21 L3 17 L5.5 13.5 L10.5 16 Z" fill="#ffffff"/>
  <path d="M3 17 L2.5 12.5 L5.5 9 L10.5 10.5 L7.5 8 L3.5 9.5 Z" fill="#ffffff"/>
</svg>

